<svg fill="none" height="32" viewBox="0 0 32 32" width="32" xmlns="http://www.w3.org/2000/svg"><circle cx="15.7846" cy="16.2154" fill="#b6c1d1" r="14.7987" transform="matrix(-.5 -.8660254 .8660254 -.5 9.633952 37.992965)"/><path d="m16.9736 18.0652c2.3594-1.3621 5.3763-.5538 6.7384 1.8056 1.3622 2.3594.5538 5.3763-1.8055 6.7385-2.3594 1.3622-5.3763.5538-6.7385-1.8056s-.5538-5.3763 1.8056-6.7385z" fill="#7b88a1"/><path d="m20.3045 7.27453c1.4746-.85137 3.3601-.34613 4.2115 1.12848.8514 1.4746.3461 3.36019-1.1285 4.21149-1.4746.8514-3.3601.3462-4.2115-1.1284s-.3461-3.36021 1.1285-4.21157z" fill="#7b88a1"/><path d="m8.38526 29.0314c-3.39902-1.9624-5.87926-5.1947-6.89509-8.9858-1.015826-3.7912-.48403-7.8305 1.4784-11.22957 1.96243-3.39903 5.19474-5.87927 8.98583-6.8951 3.7911-1.015825 7.8305-.48403 11.2296 1.4784l-7.3994 12.81607z" fill="#f8c022"/></svg>