<svg viewBox="0 0 160 64">
	<path d="M153.083 0H160V64H0V59.8877C1.59775 59.3131 3.32024 59 5.11585 59C7.2705 59 9.31985 59.4508 11.1747 60.2633C13.462 54.8214 18.8427 51 25.1159 51C27.4048 51 29.575 51.5088 31.5194 52.4194C34.2922 49.1068 38.458 47 43.1159 47C48.1177 47 52.5522 49.4295 55.3036 53.1727C57.5834 51.7937 60.2569 51 63.1159 51C66.8798 51 70.3225 52.3757 72.9684 54.6518C75.5684 50.0819 80.4822 47 86.1159 47C90.415 47 94.2949 48.7947 97.0473 51.6758C98.9772 48.8482 101.712 46.6134 104.921 45.3007C107.305 38.1529 114.051 33 122 33C124.264 33 126.43 33.4179 128.425 34.1807C130.023 31.9263 131.999 29.9585 134.26 28.3694C134.089 27.3387 134 26.2804 134 25.2012C134 14.5967 142.597 6 153.201 6C153.697 6 154.188 6.01879 154.675 6.0557C153.832 4.17778 153.282 2.13983 153.083 0Z" />
</svg>
