<svg viewBox="0 0 320 128">
	<path d="M261 47.5C261 63.2401 248.24 76 232.5 76C216.76 76 204 63.2401 204 47.5C204 31.7599 216.76 19 232.5 19C248.24 19 261 31.7599 261 47.5Z M228 70C228 81.598 218.598 91 207 91C195.402 91 186 81.598 186 70C186 58.402 195.402 49 207 49C218.598 49 228 58.402 228 70Z M209 84C209 95.598 199.598 105 188 105C176.402 105 167 95.598 167 84C167 72.402 176.402 63 188 63C199.598 63 209 72.402 209 84Z M186 88C186 99.598 176.598 109 165 109C153.402 109 144 99.598 144 88C144 76.402 153.402 67 165 67C176.598 67 186 76.402 186 88Z M165 85C165 94.9411 156.941 103 147 103C137.059 103 129 94.9411 129 85C129 75.0589 137.059 67 147 67C156.941 67 165 75.0589 165 85Z M139 88C139 97.9411 130.941 106 121 106C111.059 106 103 97.9411 103 88C103 78.0589 111.059 70 121 70C130.941 70 139 78.0589 139 88Z M121 94C121 103.941 112.941 112 103 112C93.0589 112 85 103.941 85 94C85 84.0589 93.0589 76 103 76C112.941 76 121 84.0589 121 94Z" />
</svg>
