<svg viewBox="0 0 160 64">
	<path d="M130.746 0H160V48.2229C155.757 51.9485 150.194 54.2073 144.104 54.2073C142.162 54.2073 140.274 53.9777 138.465 53.5441C135.409 58.519 130.59 62.2944 124.878 64H85.2291C84.9718 63.7002 84.7245 63.3915 84.4876 63.0746C84.2065 63.3954 83.9121 63.7041 83.6051 64H0V48.0758C2.75637 44.3876 7.15729 42 12.1159 42C14.4048 42 16.575 42.5088 18.5194 43.4194C21.2922 40.1068 25.458 38 30.1159 38C35.1177 38 39.5522 40.4295 42.3036 44.1727C44.5834 42.7937 47.2569 42 50.1159 42C53.8798 42 57.3225 43.3757 59.9684 45.6518C62.5684 41.0819 67.4822 38 73.1159 38C77.415 38 81.2949 39.7947 84.0473 42.6758C86.5038 39.0767 90.2637 36.4379 94.6476 35.4389C97.1561 24.8656 106.659 17 118 17C119.884 17 121.717 17.2171 123.476 17.6275C124.975 15.154 126.907 12.9716 129.166 11.1854C129.056 10.3056 129 9.40941 129 8.5C129 5.4809 129.622 2.60714 130.746 0Z" />
</svg>
