<svg viewBox="0 0 320 128">
	<path d="M259 56C259 69.2548 248.255 80 235 80C221.745 80 211 69.2548 211 56C211 42.7452 221.745 32 235 32C248.255 32 259 42.7452 259 56Z M247 81C247 94.2548 236.255 105 223 105C209.745 105 199 94.2548 199 81C199 67.7452 209.745 57 223 57C236.255 57 247 67.7452 247 81Z M215 91C215 101.493 206.493 110 196 110C185.507 110 177 101.493 177 91C177 80.5066 185.507 72 196 72C206.493 72 215 80.5066 215 91Z M187 97C187 105.284 180.284 112 172 112C163.716 112 157 105.284 157 97C157 88.7157 163.716 82 172 82C180.284 82 187 88.7157 187 97Z M167 91.5C167 100.06 160.06 107 151.5 107C142.94 107 136 100.06 136 91.5C136 82.9396 142.94 76 151.5 76C160.06 76 167 82.9396 167 91.5Z M149 90.5C149 99.0604 142.06 106 133.5 106C124.94 106 118 99.0604 118 90.5C118 81.9396 124.94 75 133.5 75C142.06 75 149 81.9396 149 90.5Z M124 98.5C124 107.06 117.06 114 108.5 114C99.9396 114 93 107.06 93 98.5C93 89.9396 99.9396 83 108.5 83C117.06 83 124 89.9396 124 98.5Z" />
</svg>
