<svg viewBox="0 0 24 24" fill="none" xmlns="http://www.w3.org/2000/svg">
	<path fill-rule="evenodd" clip-rule="evenodd" d="M12 20C16.4183 20 20 16.4183 20 12C20 7.58172 16.4183 4 12 4C7.58172 4 4 7.58172 4 12C4 16.4183 7.58172 20 12 20ZM12 22C17.5228 22 22 17.5228 22 12C22 6.47715 17.5228 2 12 2C6.47715 2 2 6.47715 2 12C2 17.5228 6.47715 22 12 22Z" />
	<path d="M8.61523 9.66504C8.61523 9.2321 8.75423 8.7946 9.03223 8.35254C9.31022 7.90592 9.71582 7.53678 10.249 7.24512C10.7822 6.95345 11.4043 6.80762 12.1152 6.80762C12.776 6.80762 13.3594 6.93066 13.8652 7.17676C14.3711 7.41829 14.7607 7.7487 15.0342 8.16797C15.3122 8.58724 15.4512 9.04297 15.4512 9.53516C15.4512 9.92253 15.3714 10.262 15.2119 10.5537C15.057 10.8454 14.8701 11.0983 14.6514 11.3125C14.4372 11.5221 14.0498 11.8776 13.4893 12.3789C13.3343 12.5202 13.209 12.6455 13.1133 12.7549C13.0221 12.8597 12.9538 12.9577 12.9082 13.0488C12.8626 13.1354 12.8262 13.2243 12.7988 13.3154C12.776 13.402 12.7396 13.557 12.6895 13.7803C12.6029 14.2542 12.3317 14.4912 11.876 14.4912C11.639 14.4912 11.4385 14.4137 11.2744 14.2588C11.1149 14.1038 11.0352 13.8737 11.0352 13.5684C11.0352 13.1855 11.0944 12.8551 11.2129 12.5771C11.3314 12.2946 11.4886 12.0485 11.6846 11.8389C11.8805 11.6247 12.1449 11.3717 12.4775 11.0801C12.7692 10.8249 12.9788 10.6335 13.1064 10.5059C13.2386 10.3737 13.348 10.2279 13.4346 10.0684C13.5257 9.90885 13.5713 9.73568 13.5713 9.54883C13.5713 9.18424 13.4346 8.87663 13.1611 8.62598C12.8923 8.37533 12.5436 8.25 12.1152 8.25C11.6139 8.25 11.2448 8.3776 11.0078 8.63281C10.7708 8.88346 10.5703 9.25488 10.4062 9.74707C10.2513 10.262 9.95736 10.5195 9.52441 10.5195C9.26921 10.5195 9.05273 10.4307 8.875 10.2529C8.70182 10.0706 8.61523 9.87467 8.61523 9.66504ZM11.9512 17.1572C11.6732 17.1572 11.4294 17.0684 11.2197 16.8906C11.0146 16.7083 10.9121 16.4554 10.9121 16.1318C10.9121 15.8447 11.0124 15.6032 11.2129 15.4072C11.4134 15.2113 11.6595 15.1133 11.9512 15.1133C12.2383 15.1133 12.4798 15.2113 12.6758 15.4072C12.8717 15.6032 12.9697 15.8447 12.9697 16.1318C12.9697 16.4508 12.8672 16.7015 12.6621 16.8838C12.457 17.0661 12.2201 17.1572 11.9512 17.1572Z" />
</svg>
