<svg viewBox="0 0 160 64">
	<path d="M80 17L81.5203 20.4797L85 22L81.5203 23.5203L80 27L78.4797 23.5203L75 22L78.4797 20.4797L80 17Z M47 53L48.5203 49.5203L52 48L48.5203 46.4797L47 43L45.4797 46.4797L42 48L45.4797 49.5203L47 53Z M37 17L38.2162 14.2162L41 13L38.2162 11.7838L37 9L35.7838 11.7838L33 13L35.7838 14.2162L37 17Z M24 29L25.2162 26.2162L28 25L25.2162 23.7838L24 21L22.7838 23.7838L20 25L22.7838 26.2162L24 29Z M93.5 57L94.5642 54.5642L97 53.5L94.5642 52.4358L93.5 50L92.4358 52.4358L90 53.5L92.4358 54.5642L93.5 57Z" />
</svg>
