<svg viewBox="0 0 160 64">
	<path d="M70 38L70.9122 40.0878L73 41L70.9122 41.9122L70 44L69.0878 41.9122L67 41L69.0878 40.0878L70 38Z M57 21L57.6081 19.6081L59 19L57.6081 18.3919L57 17L56.3919 18.3919L55 19L56.3919 19.6081L57 21Z M72 11L72.6081 9.60811L74 9L72.6081 8.39189L72 7L71.3919 8.39189L70 9L71.3919 9.60811L72 11Z M96 9L96.6081 7.60811L98 7L96.6081 6.39189L96 5L95.3919 6.39189L94 7L95.3919 7.60811L96 9Z M45 31L45.6081 29.6081L47 29L45.6081 28.3919L45 27L44.3919 28.3919L43 29L44.3919 29.6081L45 31Z M18 48L18.6081 46.6081L20 46L18.6081 45.3919L18 44L17.3919 45.3919L16 46L17.3919 46.6081L18 48Z" />
</svg>
